<svg width="100" height="40" viewBox="0 0 100 40" fill="none" xmlns="http://www.w3.org/2000/svg">
<path d="M73.9376 16.4962H70.0624V15.5039H70.4374C70.4374 15.5039 70.4374 15.5039 70.5 15.4419C70.5624 15.3798 70.625 15.3178 70.625 15.2558C70.6874 15.1318 70.6874 15.0078 70.75 14.8837C70.75 14.7597 70.8126 14.6357 70.8126 14.5116V7.44186C70.8126 7.37984 70.8124 7.25581 70.75 7.13178C70.75 7.00776 70.6874 6.88373 70.625 6.82171C70.5624 6.7597 70.5624 6.69768 70.5 6.63566C70.4374 6.57365 70.4374 6.57365 70.4374 6.57365H70.0624V5.58139H73.9376V6.57365H73.5624C73.5 6.57365 73.5 6.57365 73.5 6.57365C73.4374 6.63566 73.375 6.69768 73.375 6.7597C73.3126 6.88373 73.3124 7.00776 73.25 7.13178C73.25 7.25581 73.1874 7.37984 73.1874 7.44186V12.4031L78.25 7.44186C78.25 7.37984 78.25 7.25581 78.1874 7.13178C78.1874 7.00776 78.125 6.88373 78.0626 6.82171C78 6.7597 77.9374 6.63566 77.875 6.63566C77.8124 6.57365 77.8124 6.57365 77.8124 6.57365H77.5V5.58139H81.375V6.57365H81C81 6.57365 80.9374 6.57365 80.875 6.63566C80.8124 6.69768 80.75 6.7597 80.75 6.82171C80.6874 6.94574 80.6874 7.06976 80.625 7.19379C80.625 7.31782 80.5624 7.44186 80.5624 7.50387V14.6357C80.5624 14.7597 80.5624 14.8217 80.625 14.9457C80.6874 15.0698 80.6874 15.1938 80.75 15.3178C80.8124 15.3798 80.875 15.5039 80.9374 15.5659C81 15.6279 81 15.6279 81 15.6279H81.375V16.6202H77.5V15.6279H77.875C77.875 15.6279 77.875 15.6279 77.9374 15.5659C78 15.5039 78.0624 15.4419 78.125 15.3178C78.1876 15.1938 78.1874 15.0698 78.25 14.9457C78.25 14.8217 78.3124 14.6977 78.3124 14.5736V9.6124L73.25 14.5736C73.25 14.6977 73.25 14.8217 73.3126 14.9457C73.3126 15.0698 73.375 15.1938 73.4374 15.3178C73.5 15.4419 73.5624 15.5039 73.625 15.5659H73.6874H74.0624L73.9376 16.4962ZM60 8.49613C60 8.3721 60 8.18605 60.0624 8C60.125 7.81395 60.1874 7.68992 60.3124 7.50387C60.375 7.37984 60.5 7.25581 60.6874 7.19379C60.8124 7.13178 61 7.06976 61.1874 7.06976H62.9374V14.5116C62.9374 14.6357 62.9374 14.7597 62.875 14.8837C62.875 15.0078 62.8124 15.1318 62.75 15.1938C62.6874 15.3178 62.625 15.3798 62.5624 15.4419C62.5 15.5039 62.5 15.5039 62.5 15.5039H62.125V16.4962H66.0624V15.5039H65.6874H65.625C65.5624 15.4419 65.5 15.3178 65.4374 15.2558C65.375 15.1318 65.3124 15.0078 65.3124 14.9457C65.3124 14.8217 65.25 14.6977 65.25 14.6357V7.19379H67.0626C67.25 7.19379 67.4374 7.25581 67.5624 7.31782C67.6874 7.37984 67.875 7.50387 67.9374 7.6279C68.0624 7.75194 68.125 7.93798 68.1874 8.06202C68.25 8.24806 68.25 8.3721 68.25 8.55814V8.93024H69.1874V5.58139H59.0624V8.86822H60V8.49613ZM98.8126 7.87597C98.875 7.68992 98.9374 7.44186 99 7.31782C99.0624 7.19379 99.1874 7.06976 99.3124 6.94574C99.4374 6.88373 99.5 6.82171 99.625 6.82171H100V5.64341H94.25V6.7597H94.625C94.6874 6.7597 94.8124 6.82171 94.875 6.88373C95 7.00776 95.125 7.13178 95.1876 7.31782C95.25 7.50387 95.375 7.68992 95.375 7.87597C95.4374 8.12403 95.4374 8.24806 95.4374 8.43411V8.49613L86.875 16.8062V8.43411C86.875 8.24806 86.875 8.06202 86.9374 7.87597C87 7.68992 87.0624 7.50387 87.125 7.31782C87.1874 7.13178 87.3126 7.00776 87.375 6.94574C87.4376 6.88373 87.5624 6.82171 87.625 6.82171H88V5.64341H82.3124V6.7597H82.6876C82.75 6.7597 82.8124 6.7597 82.9374 6.88373C83.0624 7.00776 83.1874 7.13178 83.25 7.31782C83.3124 7.50387 83.4374 7.68992 83.4374 7.87597C83.5 8.06202 83.5 8.24806 83.5 8.43411V19.7829C83.5 19.969 83.5 20.155 83.4374 20.403C83.375 20.5891 83.3124 20.8373 83.25 21.0232C83.1874 21.2093 83.0624 21.3333 82.9374 21.4574C82.8124 21.5814 82.75 21.5814 82.6876 21.5814H82.3124V22.6976H88V21.5814H87.625C87.5624 21.5814 87.5 21.5814 87.4374 21.4574C87.3124 21.3333 87.1874 21.1474 87.125 21.0232C87.0624 20.8373 87 20.6512 86.9374 20.403C86.875 20.2171 86.875 19.969 86.875 19.7829V19.6589L95.4374 11.3488V19.7829C95.4374 19.969 95.4374 20.155 95.375 20.403C95.3124 20.5891 95.25 20.8373 95.1876 21.0232C95.125 21.2093 95 21.3333 94.875 21.4574C94.8124 21.5194 94.6874 21.5814 94.625 21.5814H94.25V22.6976H100V21.5814H99.625C99.625 21.5814 99.5 21.5814 99.375 21.4574C99.25 21.3333 99.125 21.2093 99.0624 21.0232C98.9374 20.8373 98.875 20.6512 98.8126 20.403C98.75 20.2171 98.75 19.969 98.75 19.7829V8.43411C98.75 8.24806 98.75 8.06202 98.8126 7.87597ZM88.0624 3.65891C88.9374 4.09302 90.0624 4.34109 91.5 4.34109C92.6874 4.34109 93.8124 4.15504 94.6874 3.72093C95.6874 3.28682 96.1874 2.60466 96.1874 1.73643C96.1874 1.30233 96.0624 0.868218 95.75 0.558139C95.4374 0.186046 95 0 94.5624 0C94.125 0 93.75 0.124031 93.4374 0.434109C93.1874 0.682171 92.9374 1.05426 92.625 1.67442C92.375 2.17054 91.9374 2.7907 91.4374 2.7907C91.0624 2.7907 90.625 2.41861 90.25 1.67442C89.875 0.992248 89.5624 0.558139 89.3124 0.372093C89.0624 0.124031 88.6874 0.0620155 88.3124 0.0620155C87.8124 0.0620155 87.4374 0.248062 87.125 0.558139C86.8124 0.868218 86.625 1.30233 86.625 1.73643C86.625 2.54264 87.125 3.16278 88.0624 3.65891ZM10.8125 11.4108C11.625 10.9147 12.1875 10.4806 12.5625 9.9845C13.0625 9.36434 13.3125 8.62016 13.3125 7.75194C13.3125 6.44962 12.8125 5.33333 11.75 4.46512C10.6875 3.53488 9.125 3.10077 7.0625 3.10077C5.8125 3.10077 4.6875 3.2248 3.6875 3.53488C2.75 3.78294 2.125 4.09302 1.75 4.4031L1.6875 4.46512V4.58915C1.5625 5.33333 1.5 6.07752 1.5 6.88373C1.5 7.06976 1.5 7.25581 1.5 7.50387V7.75194L1.75 7.81395C1.875 7.87597 2 7.87597 2.125 7.87597C2.1875 7.87597 2.25 7.87597 2.4375 7.81395L2.625 7.75194L2.6875 7.56589C3.125 6.51163 3.75 5.76744 4.5625 5.27131C5.375 4.7752 6.1875 4.52714 7 4.52714C8.0625 4.52714 8.8125 4.83722 9.375 5.39534C9.9375 5.95349 10.1875 6.7597 10.1875 7.68992C10.1875 8.55814 9.8125 9.36434 9.0625 10.1705C8.3125 10.9147 6.875 11.3488 4.75 11.3488H4.375V12.8372H4.75C4.9375 12.8372 5.3125 12.8372 6.0625 12.7752C6.8125 12.7132 7.25 12.7132 7.375 12.7132C8.625 12.7132 9.625 13.0233 10.375 13.7054C11.125 14.3876 11.5 15.3798 11.5 16.6822C11.5 17.9845 11.0625 19.1008 10.25 19.969C9.4375 20.8373 8.375 21.2714 7.0625 21.2714C6.4375 21.2714 5.8125 21.1474 5.1875 20.8373C4.375 20.4651 4.125 20.2171 4 20.031C3.8125 19.7829 3.6875 19.3488 3.5 18.7907C3.25 17.8605 2.625 17.3643 1.75 17.3643C1.25 17.3643 0.8125 17.5504 0.5 17.9226C0.125 18.1706 0 18.6046 0 19.1008C0 20.093 0.6875 20.9613 2.0625 21.6434C3.375 22.2635 4.9375 22.6357 6.875 22.6357C9 22.6357 10.8125 22.0155 12.375 20.8992C13.9375 19.721 14.75 18.2325 14.75 16.4962C14.6875 14.0155 13.375 12.3411 10.8125 11.4108ZM15.375 13.8295C14.8125 12.8992 14.5 11.845 14.5 10.7287C14.5 10.1085 14.625 9.36434 14.875 8.68218C15.125 7.93798 15.5625 7.25581 16.125 6.69768C16.6874 6.13954 17.25 5.64341 17.875 5.39534C18.75 5.02325 19.8124 4.7752 21 4.7752C22.75 4.7752 24.25 5.39534 25.5 6.57365C26.6874 7.75194 27.3126 9.2403 27.3126 10.9147C27.3126 12.4651 26.6874 13.8295 25.4374 15.0078C24.1874 16.1861 22.625 16.8062 20.6874 16.8062C19.5 16.8062 18.375 16.4962 17.375 15.876C16.625 15.4419 15.9375 14.7597 15.375 13.8295ZM17.3126 10.9768C17.3126 12.5271 17.625 13.6434 18.3124 14.3876C19 15.1318 19.8124 15.5039 20.8124 15.5039C21.4374 15.5039 22 15.3178 22.625 15.0078C23.1876 14.6977 23.625 14.1395 24 13.3953C24.375 12.6512 24.5 11.7829 24.5 10.7287C24.5 10.0465 24.375 9.30232 24.0624 8.43411C23.8124 7.56589 23.375 6.94574 22.875 6.57365C22.3124 6.13954 21.6874 5.95349 20.9374 5.95349C20.375 5.95349 19.8124 6.07752 19.25 6.32558C18.6874 6.57365 18.25 7.06976 17.875 7.75194C17.5 8.55814 17.3126 9.6124 17.3126 10.9768ZM50.25 26.4186V37.0232C50.25 37.2093 50.25 37.3954 50.3124 37.5814C50.375 37.7675 50.4374 37.9534 50.5 38.1395C50.5624 38.2635 50.6874 38.4496 50.8124 38.5117C50.9374 38.6357 51 38.6357 51 38.6357H51.375V39.752H46V38.6357H46.375C46.375 38.6357 46.5 38.6357 46.5624 38.5117C46.6874 38.3875 46.75 38.2635 46.8126 38.1395C46.875 37.9534 46.9374 37.7675 47 37.5814C47.0624 37.3954 47.0626 37.2093 47.0626 37.0232V26.4186C47.0626 26.2946 47.0624 26.1085 47 25.9224C46.9374 25.7365 46.875 25.5504 46.8126 25.3643C46.75 25.2403 46.625 25.1163 46.5624 24.9923C46.4374 24.8682 46.375 24.8682 46.375 24.8682H46V23.752H51.375V24.8682H51C50.875 24.8682 50.8124 24.9302 50.6874 24.9923C50.5624 25.1163 50.5 25.1782 50.4374 25.3643C50.375 25.5504 50.3124 25.7365 50.25 25.9224C50.25 26.1706 50.25 26.2946 50.25 26.4186ZM48.9374 25.1163H48.4374V38.5117H48.9374V25.1163ZM69.0624 39.752C68.5624 39.752 68.375 39.752 68.1874 39.752C67.9374 39.752 67.625 39.752 66.6874 39.752C65.75 39.752 65 38.3256 64.3124 36.9613C64.25 36.8992 64.25 36.8373 64.25 36.7752L62.3124 32.9302C62.0624 32.3722 61.5624 31.876 60.9374 31.5038C60.375 31.1938 59.8126 30.9458 59.25 30.8837V36.5891C59.25 36.8373 59.25 37.0232 59.3126 37.2714C59.375 37.5194 59.4374 37.7054 59.5 37.8915C59.5624 38.0774 59.6874 38.2635 59.8124 38.3875C59.9374 38.5117 60 38.5117 60.125 38.5117H60.5V39.6899H54.4374V38.5117H54.8124C54.9374 38.5117 55 38.4496 55.125 38.3875C55.25 38.2635 55.375 38.1395 55.4374 37.9534C55.5624 37.7054 55.625 37.5194 55.6874 37.2714C55.75 37.0232 55.75 36.8373 55.75 36.5891V24C55.75 23.8139 55.75 23.6278 55.6874 23.3798C55.625 23.1318 55.5624 22.9458 55.5 22.6976C55.4374 22.5117 55.3126 22.3875 55.1876 22.2635C55.125 22.2016 55 22.1395 54.8124 22.1395H54.4374V20.9613H60.4374V22.1395H60.0624C60 22.1395 59.9374 22.1395 59.8124 22.2635C59.6874 22.3875 59.5624 22.5736 59.5 22.7597C59.375 22.9458 59.3126 23.1938 59.3126 23.4419C59.25 23.6899 59.25 23.876 59.25 24.0621V28.5272C59.25 28.7131 59.25 28.7131 59.25 28.7131C59.25 28.7131 59.3124 28.7752 59.5 28.8373C60.25 28.7131 61.125 28.5272 61.3124 28.403C62 27.721 62.5626 26.6046 63 24.9302C63.8126 22.0776 65.1876 20.5272 67.0626 20.3411C67.25 20.3411 67.375 20.3411 67.5 20.3411C68.75 20.3411 69.5 21.0232 69.625 22.2016C69.6874 22.6976 69.5626 23.1318 69.3126 23.4419C69.0626 23.752 68.625 23.9379 68.125 24C68.0624 24 68 24 67.9374 24C67.3124 24 66.75 23.6899 66.375 23.0698C66.125 22.7597 66.0624 22.6976 66 22.6976C65.75 22.7597 65.125 23.1318 64.5 25.6125C64.0624 27.2248 63.4374 28.4651 62.625 29.3333C62.5624 29.3954 62.5626 29.3954 62.5 29.4574C62.8124 29.5194 63.0624 29.6434 63.3124 29.8294C64.125 30.3256 64.8124 31.1318 65.375 32.1861L67.375 36.093C67.5 36.403 67.75 36.7131 68 37.0232C68.25 37.3333 68.5624 37.6434 68.875 37.8915C69.1874 38.1395 69.5 38.3875 69.875 38.5736C70.1874 38.6976 70.4374 38.8218 70.75 38.8218H71.125V40H69.0624V39.752ZM57.6876 22.3256C57.6876 22.3256 56.625 21.8294 56.8126 22.0155C56.875 22.0774 57.1874 22.5117 57.1874 22.5117V38.3875H57.6876V22.3256ZM68.8124 38.8837L68.0624 38.3875C68.0624 38.3875 67.0624 37.5814 66.3124 36.4651C65.25 34.9147 64.5624 32.6202 63.8124 31.5659C62.9374 30.3256 61.3124 30.1395 61.3124 30.1395C61.3124 30.1395 62.4374 30.7597 63.3124 31.876C63.9374 32.6822 65.0626 35.1627 66.125 36.7131C66.9376 38.0155 68.8124 38.8837 68.8124 38.8837ZM42.25 38.5117C41.5624 38.9458 40.75 39.2558 39.875 39.4419C39 39.6278 38.125 39.752 37.1874 39.752H31.1876V38.7597H31.6874C31.75 38.7597 31.75 38.7597 31.8124 38.6976C31.9374 38.6357 32 38.5117 32.0624 38.3875C32.125 38.2635 32.1874 38.1395 32.25 38.0155C32.3124 37.8915 32.3126 37.7054 32.3126 37.6434V22.8837C32.3126 22.7597 32.3124 22.6976 32.25 22.5117C32.1874 22.3875 32.1874 22.2635 32.0624 22.1395C32 22.0155 31.9374 21.9534 31.8124 21.8294C31.75 21.7675 31.6874 21.7675 31.5624 21.7675H31.0624V20.7752H36.5624C38.5624 20.7752 40.1874 21.2093 41.3124 21.9534C42.5 22.7597 43.125 23.876 43.125 25.3024C43.125 25.8605 43 26.4186 42.75 26.9147C42.5 27.3488 42.25 27.7829 41.875 28.155C41.5624 28.5272 41.1874 28.7752 40.75 29.0232C40.6874 29.0853 40.625 29.0853 40.5626 29.1474C41.0626 29.2714 41.5 29.4574 41.875 29.7054C42.5 30.0776 43 30.5117 43.375 31.0077C43.75 31.5038 44.0624 32 44.1874 32.6202C44.375 33.1782 44.4374 33.7365 44.4374 34.2325C44.4374 35.2869 44.1874 36.155 43.8124 36.8373C43.5 37.5194 42.9374 38.0774 42.25 38.5117ZM40.125 22.5736C40.125 22.5736 41.6874 23.5659 41.6874 25.3024C41.6874 27.3488 40.0624 28.4651 40.0624 28.4651C40.0624 28.4651 42.125 27.4728 42.0626 25.2403C42 23.3798 40.125 22.5736 40.125 22.5736ZM35.1874 28.6512H36.4374C37.25 28.6512 37.9374 28.5272 38.4374 28.3411C38.9374 28.155 39.375 27.907 39.625 27.6589C39.9374 27.3488 40.125 27.1008 40.25 26.7286C40.375 26.3566 40.4374 26.0466 40.4374 25.6744V25.4883C40.375 24.4962 40 23.752 39.3126 23.1938C38.625 22.6357 37.625 22.3256 36.375 22.3256H35.1874V28.6512ZM34 22.0774C34 22.0774 32.9374 21.5194 33.125 21.7054C33.1874 21.7675 33.5 22.2016 33.5 22.2016V38.4496H34V22.0774ZM41.6874 34.6667V34.3566C41.5 33.0542 41 32 40.1876 31.3178C39.3126 30.5736 38.125 30.2635 36.5624 30.2635H35.1874V38.1395H36.625C38.25 38.1395 39.5 37.8294 40.4374 37.2093C41.25 36.5891 41.6874 35.7829 41.6874 34.6667ZM43.375 33.6744C43.0624 31.2558 40.625 30.3875 40.625 30.3875C40.625 30.3875 42.6874 31.5659 42.9374 33.7984C43.25 36.4651 41.3124 38.0155 41.3124 38.0155C41.3124 38.0155 43.75 36.5891 43.375 33.6744ZM40.625 18.2325H17.875V18.8526H41.5624L40.625 18.2325ZM55.75 18.8526H79.5V18.2325H56.6874L55.75 18.8526ZM41.875 11.907C41.9374 10.7907 42.375 9.92248 43.125 9.30232C43.8124 8.74419 44.4376 8.49613 45.1876 8.55814C45.75 8.55814 46.1874 8.74419 46.5 9.11627C46.75 9.42635 46.875 9.79845 46.875 10.2326C46.8124 10.9768 46.5624 11.5969 46.0624 12.093C45.625 12.5271 45.1874 12.8372 44.5624 12.8992C44.5624 12.8992 44.375 12.8372 44.3124 12.7752C44.3124 12.7132 44.375 12.5271 44.4374 12.5271C45 12.2791 45.3124 12.093 45.625 11.7209C46 11.2868 46.25 10.7907 46.25 10.2946C46.25 9.86046 46.1874 9.48837 46 9.2403C45.8124 8.99224 45.5626 8.80621 45.25 8.80621C44.625 8.74419 43.875 9.11627 43.375 9.73643C42.875 10.3566 42.4376 11.1628 42.4376 11.969C42.4376 12.5271 42.625 12.9612 42.9374 13.2093C43.3124 13.5194 43.6874 13.7054 44.3124 13.7054C45.1874 13.7674 46.0624 13.5194 46.9374 12.7752C47.9374 11.969 48.4374 10.9768 48.5 9.86046C48.5 9.42635 48.4374 9.05426 48.1874 8.74419C48.125 8.68218 48.0626 8.62016 48 8.55814C47.6876 8.68218 47.4374 8.86822 47.1874 9.11627C47.125 9.17829 47.0624 9.17829 47 9.17829C46.875 9.17829 46.8126 9.11627 46.8126 8.93024C46.8126 8.74419 46.9374 8.62016 47.1874 8.49613C47.3124 8.43411 47.4374 8.3721 47.625 8.31008C47.4374 8.18605 47.1874 8.12403 46.875 8.06202C46.5626 8.12403 46.375 8.12403 46.1874 8.12403C46.0624 8.12403 45.875 8.12403 45.625 8.12403C45.5624 8.12403 45.5626 8.12403 45.5 8.06202C45.4376 8 45.375 7.93798 45.4374 7.81395C45.5 7.6279 45.5624 7.56589 45.75 7.56589C46.5 7.6279 47.125 7.50387 47.625 7.37984C48.5 7.06976 49.25 6.32558 49.3124 5.33333C49.3124 4.96125 49.125 4.65117 48.75 4.4031C48.4374 4.21706 48.0624 4.03101 47.6874 4.03101C47.25 4.03101 46.8126 4.09302 46.4376 4.21706C46.1876 4.27907 45.75 4.52714 45.625 4.65117C45.5 4.7752 45.4374 4.89923 45.375 4.96125C45.3124 5.14728 45.375 5.39534 45.5 5.39534C45.625 5.39534 45.8124 5.51938 45.8124 5.64341C45.875 5.82946 45.8124 6.0155 45.625 6.13954C45.4374 6.32558 45.1874 6.3876 45 6.32558C44.8124 6.32558 44.625 6.20155 44.5624 6.0155C44.5 5.89147 44.4374 5.70542 44.4374 5.51938C44.4374 4.96125 44.8126 4.52714 45.5 4.15504C46.1876 3.78294 46.9374 3.65891 47.875 3.65891C48.4374 3.65891 48.9374 3.84496 49.375 4.15504C49.8124 4.46512 50 4.7752 49.9376 5.14728C49.875 5.82946 49.5624 6.44962 48.8124 7.00776C48.25 7.44186 47.75 7.68992 47.3124 7.75194C47.5624 7.81395 47.8126 7.87597 48 8C49 7.68992 50.125 7.50387 51.3124 7.56589C51.6874 7.19379 52.25 6.82171 52.9374 6.57365C53.0624 6.51163 53.125 6.51163 53.125 6.57365C53.125 6.63566 53.0624 6.69768 52.9374 6.69768C52.4374 6.82171 52.0624 7.13178 51.75 7.50387C53.8124 7.56589 54.8124 8.24806 54.75 9.6124C54.6874 10.2326 54.375 10.7907 53.8124 11.2248C53.25 11.6589 52.5624 11.907 51.8124 11.969V12.031C52.5624 12.031 53.1876 12.2171 53.6876 12.6512C54.1876 13.0853 54.375 13.5814 54.375 14.2016C54.3124 15.0698 53.875 15.814 53.0626 16.3101C52.3126 16.8062 51.4374 17.0542 50.4374 17.0542C49.9374 17.0542 49.25 16.9923 48.375 16.9302C47.5 16.8062 47 16.8062 46.8126 16.8062C46.1876 16.8062 45.75 16.9302 45.4374 17.1163C45.375 17.1782 45.3126 17.1782 45.3126 17.1782C45.3126 17.1782 45.3126 17.1163 45.3126 17.0542C45.5 16.6202 45.875 16.3722 46.4376 16.3722C46.5626 16.3722 46.75 16.3722 46.875 16.3722C46.9376 16.3722 47.0624 16.3722 47.125 16.3101C47.625 16.0621 48 15.5659 48.25 14.8217C48.5 14.0775 48.8124 13.2093 49.125 12.155C49.5 10.9147 49.75 9.9845 49.9376 9.48837C50.1876 8.74419 50.5624 8.18605 51.0624 7.68992C50 7.68992 49.0624 7.87597 48.1874 8.18605C48.3124 8.31008 48.5 8.43411 48.625 8.62016C49 9.05426 49.1874 9.48837 49.125 9.86046C49.0624 11.1008 48.4374 12.155 47.1874 12.9612C46.125 13.7054 45.125 14.0155 44.125 13.9535C43.3124 13.8915 42.6876 13.6434 42.1874 13.2093C42.0624 12.9612 41.875 12.5271 41.875 11.907ZM50.625 10.4186C50.3124 11.2248 50.0624 12.093 49.75 12.8992C49.4374 13.7674 49.125 14.4496 48.875 14.8837C48.375 15.6899 47.875 16.1861 47.3124 16.4341C47.5 16.4341 48 16.5581 48.875 16.7442C49.5624 16.8682 50.125 16.9302 50.625 16.9302C51.4374 16.9302 52.125 16.6822 52.625 16.1861C53.1874 15.6899 53.4374 15.0698 53.4374 14.2016C53.4374 13.5814 53.25 13.0853 52.8124 12.7132C52.375 12.3411 51.8124 12.155 51.0624 12.155C51 12.155 50.875 12.155 50.6874 12.155C50.5624 12.155 50.5 12.155 50.5 12.155C50.5 12.155 50.5624 12.093 50.625 11.969C50.75 11.845 50.8124 11.845 51 11.845C51.0624 11.845 51.1874 11.845 51.3124 11.845C51.4374 11.845 51.5624 11.845 51.625 11.845C52.125 11.845 52.625 11.5969 53.125 11.1628C53.6874 10.6667 53.9374 10.1085 53.9374 9.48837C53.9374 8.93024 53.6874 8.49613 53.25 8.18605C52.8124 7.87597 52.3124 7.68992 51.6874 7.6279C51.5 8.12403 51.125 8.99224 50.625 10.4186ZM39.75 14.3876C39.4374 13.3333 39.25 12.155 39.25 10.9147C39.25 9.86046 39.375 8.93024 39.5624 8.18605C39.8124 7.37984 40.125 6.51163 40.6874 5.58139C41.1874 4.65117 41.8124 3.84496 42.5624 3.2248C43.3124 2.60466 44.3124 2.04651 45.625 1.55039C46.5624 1.24031 47.6874 1.05426 49.125 1.05426C50.0624 1.05426 51 1.17829 51.875 1.48837C52.75 1.79845 53.625 2.17054 54.3124 2.66667C55.0624 3.16278 55.8124 3.96899 56.5 5.02326C57 5.76744 57.375 6.51163 57.6876 7.37984C58 8.49613 58.1874 9.6124 58.1874 10.7907C58.1874 12.155 58.0624 13.2093 57.875 14.1395C57.625 15.0077 57.25 15.876 56.75 16.7442C56.3126 17.4264 55.625 18.1706 54.5626 19.0387C53.875 19.597 53 20.093 52 20.4651C51 20.8373 49.875 21.0232 48.6874 21.0232C47.5 21.0232 46.4376 20.8373 45.5 20.5272C44.5626 20.2171 43.8124 19.845 43.1874 19.4109C42.5624 18.9768 41.9374 18.2946 41.25 17.4264C40.5624 16.3722 40.0624 15.4419 39.75 14.3876ZM54.375 3.34883C55.9374 5.33333 56.9374 8 56.9374 10.9768C56.9374 13.9535 56 16.6202 54.375 18.6046C56.3124 16.7442 57.5624 14.0155 57.5624 10.9768C57.5624 7.93798 56.375 5.2093 54.375 3.34883ZM48.5624 20.3411C59 20.7131 58.5624 1.86046 48.75 1.55039C39.1874 1.17829 38.625 20.031 48.5624 20.3411ZM40 10.9768C40 14.0155 41.25 16.7442 43.1874 18.6046C41.625 16.6202 40.625 13.9535 40.625 10.9768C40.625 8 41.5624 5.33333 43.1874 3.34883C41.25 5.2093 40 7.93798 40 10.9768ZM26.5 15.6279C26.5 16.248 27.125 16.8062 27.875 16.8062C27.9374 16.8062 28 16.8062 28.0626 16.8062H28.125C31.625 16.7442 32.25 12.093 32.375 10.4806V7.44186V7.25581C32.375 6.44962 32.8124 6.20155 33.1874 6.07752H33.8124H34.4374C34.8124 6.13954 35.25 6.44962 35.25 7.25581V14.8837C35.25 15.6899 34.8124 15.938 34.4374 16.0621H33.8124H33.75V16.5581H38.75V16.0621H38.125C37.9374 16 37.6874 15.938 37.5624 15.6899V6.3876C37.75 6.20155 37.9374 6.07752 38.125 6.0155H38.75H38.8124V5.89147V5.51938V5.39534H38.6874H30.0624H29.9376V5.45736V6.07752H30.625C30.9374 6.13954 31.25 6.32558 31.375 6.69768V9.92248C31.25 14.2016 29.75 15.0698 29.1876 15.2558C29 14.7597 28.5 14.4496 27.875 14.4496C27.125 14.4496 26.5 14.9457 26.5 15.6279Z" fill="#372924"/>
</svg>
